<svg aria-hidden="true" style="position: absolute; width: 0; height: 0; overflow: hidden;" version="1.1" xmlns="http://www.w3.org/2000/svg" xmlns:xlink="http://www.w3.org/1999/xlink">
<defs>
<symbol id="icon-logo-st" viewBox="0 0 36 32">
<path fill="#ff1515" style="fill: var(--color1, #ff1515)" d="M20.868 7.927c0 0.512 0.413 0.926 0.926 0.926 0 0 0.005 0 0.009 0 0.014 0 0.028 0 0.042 0s0.033 0 0.052-0.005c0.46-0.052 0.822-0.446 0.822-0.921 0-0.512-0.413-0.926-0.926-0.926s-0.926 0.413-0.926 0.926z"></path>
<path fill="#ff1515" style="fill: var(--color1, #ff1515)" d="M17.33 6.767c0 0.418 0.277 0.771 0.653 0.883 0.075 0.005 0.338 0.024 0.681-0.056 0.305-0.15 0.517-0.465 0.517-0.832 0-0.512-0.413-0.926-0.926-0.926-0.508 0.005-0.926 0.418-0.926 0.93z"></path>
<path fill="#ff1515" style="fill: var(--color1, #ff1515)" d="M14.088 4.943c0 0.508 0.409 0.916 0.912 0.926 0.061-0.009 0.24-0.042 0.479-0.127 0.277-0.16 0.46-0.46 0.46-0.799 0-0.512-0.413-0.926-0.926-0.926s-0.926 0.413-0.926 0.926z"></path>
<path fill="#ff1515" style="fill: var(--color1, #ff1515)" d="M36.074 10.634c0 0-0.827-3.646-8.073-3.646-0.982 0-1.955-0.122-2.904-0.338-0.019 1.067-0.597 1.87-1.682 2.321-0.611 0.254-1.212 0.324-1.48 0.343-0.042 0.005-0.080 0.005-0.122 0.009-0.009 0-0.014 0-0.019 0 0 0-0.005 0-0.005 0s0 0 0 0 0 0 0 0 0 0 0 0 0 0 0 0c-0.771 0-1.396-0.625-1.396-1.396s0.625-1.396 1.396-1.396 1.396 0.625 1.396 1.396c0 0.254-0.070 0.493-0.188 0.7 0.085-0.028 0.164-0.061 0.249-0.094 0.916-0.385 1.381-1.034 1.381-1.936 0-0.019 0.005-0.038 0.009-0.056-1.25-0.32-2.453-0.789-3.571-1.33-0.268 1.645-1.1 2.354-1.753 2.655-0.164 0.075-0.324 0.132-0.475 0.169-0.179 0.085-0.376 0.132-0.587 0.132-0.771 0-1.396-0.625-1.396-1.396s0.625-1.396 1.396-1.396 1.396 0.625 1.396 1.396c0 0.127-0.019 0.249-0.052 0.367 0.446-0.371 0.851-1.001 1.015-2.068 0.005-0.024 0.014-0.047 0.023-0.071-1.048-0.536-2.011-1.123-2.866-1.696-0.052 1.358-0.766 2.11-1.367 2.505-0.249 0.164-0.498 0.277-0.714 0.357-0.202 0.113-0.432 0.179-0.681 0.179 0 0 0 0 0 0s0 0 0 0c-0.771 0-1.396-0.625-1.396-1.396s0.625-1.396 1.396-1.396 1.396 0.625 1.396 1.396c0 0.108-0.014 0.207-0.033 0.305 0.498-0.399 0.935-1.053 0.935-2.11 0-0.052 0.014-0.094 0.042-0.132-2.049-1.438-3.332-2.707-3.332-2.707v0c-3.186 2.49-7.11 3.877-11.16 3.938l-2.49 0.033c0 0 0 1.381 0 6.579 0 1.405 0.226 2.486 0.559 3.308h34.627c0.898-1.668 0.526-3.529 0.526-3.529z"></path>
<path fill="#ff1515" style="fill: var(--color1, #ff1515)" d="M3.458 16.771c0 0 19.13 0 26.479 0 2.923 0 4.488-0.968 5.319-2.133h-34.124c0.916 1.809 2.326 2.133 2.326 2.133z"></path>
<path fill="#0e7a77" style="fill: var(--color2, #0e7a77)" d="M12.603 26.065c-0.24 0-0.442-0.042-0.616-0.127s-0.305-0.226-0.399-0.423c-0.094-0.197-0.141-0.475-0.141-0.827v-0.263c0.085 0 0.169 0 0.258 0s0.169 0 0.249 0v0.291c0 0.263 0.028 0.47 0.085 0.616s0.132 0.249 0.23 0.305c0.099 0.056 0.211 0.089 0.338 0.089 0.207 0 0.376-0.066 0.503-0.193 0.132-0.132 0.193-0.362 0.193-0.695 0-0.24-0.033-0.418-0.103-0.536s-0.174-0.216-0.32-0.287c-0.141-0.070-0.32-0.15-0.522-0.235-0.169-0.070-0.32-0.15-0.456-0.249s-0.24-0.226-0.315-0.385c-0.075-0.16-0.113-0.362-0.113-0.601 0-0.277 0.038-0.503 0.113-0.686s0.197-0.32 0.367-0.409c0.169-0.089 0.395-0.136 0.677-0.136 0.367 0 0.648 0.089 0.846 0.273s0.296 0.442 0.296 0.775v0.517c-0.080 0-0.16 0-0.24 0s-0.164 0-0.249 0v-0.395c0-0.254-0.056-0.446-0.164-0.573-0.108-0.132-0.268-0.193-0.479-0.193-0.235 0-0.399 0.066-0.503 0.202s-0.155 0.338-0.155 0.616c0 0.207 0.038 0.371 0.117 0.489s0.183 0.211 0.31 0.277c0.127 0.066 0.263 0.127 0.404 0.179 0.24 0.089 0.432 0.183 0.578 0.282s0.258 0.226 0.324 0.376c0.070 0.155 0.103 0.367 0.103 0.644 0 0.324-0.052 0.578-0.155 0.766s-0.244 0.324-0.428 0.404c-0.183 0.070-0.395 0.113-0.634 0.113z"></path>
<path fill="#0e7a77" style="fill: var(--color2, #0e7a77)" d="M14.539 26.009v-5h0.47v1.396c0.066-0.122 0.16-0.216 0.287-0.291s0.287-0.108 0.484-0.108c0.282 0 0.484 0.047 0.616 0.146s0.211 0.226 0.249 0.381c0.038 0.155 0.056 0.329 0.056 0.512v2.96h-0.493v-2.885c0-0.080-0.005-0.164-0.009-0.249-0.005-0.089-0.023-0.169-0.061-0.24-0.033-0.075-0.089-0.136-0.169-0.188s-0.197-0.075-0.348-0.075c-0.136 0-0.249 0.023-0.338 0.066-0.089 0.047-0.15 0.099-0.193 0.155-0.038 0.056-0.061 0.108-0.061 0.15v3.27h-0.489z"></path>
<path fill="#0e7a77" style="fill: var(--color2, #0e7a77)" d="M18.458 26.065c-0.244 0-0.446-0.033-0.606-0.099s-0.282-0.183-0.357-0.352c-0.075-0.169-0.113-0.404-0.113-0.7v-1.833c0-0.381 0.085-0.653 0.249-0.818s0.442-0.244 0.827-0.244c0.385 0 0.663 0.080 0.827 0.24s0.249 0.432 0.249 0.827v1.833c0 0.296-0.038 0.526-0.113 0.695-0.075 0.164-0.193 0.287-0.348 0.352-0.155 0.061-0.362 0.099-0.616 0.099zM18.458 25.755c0.211 0 0.362-0.052 0.451-0.16s0.136-0.301 0.136-0.578v-1.959c0-0.258-0.042-0.446-0.127-0.559s-0.24-0.169-0.46-0.169c-0.207 0-0.357 0.056-0.446 0.164-0.094 0.108-0.141 0.296-0.141 0.569v1.959c0 0.277 0.047 0.465 0.141 0.573 0.094 0.103 0.24 0.16 0.446 0.16z"></path>
<path fill="#0e7a77" style="fill: var(--color2, #0e7a77)" d="M21.291 26.079c-0.263 0-0.479-0.028-0.644-0.089s-0.282-0.174-0.357-0.338c-0.075-0.164-0.113-0.404-0.113-0.714v-1.959c0-0.371 0.085-0.625 0.249-0.761s0.442-0.207 0.827-0.207c0.376 0 0.648 0.070 0.813 0.207s0.249 0.39 0.249 0.761v1.015h-1.649v1.109c0 0.254 0.038 0.428 0.117 0.526s0.24 0.146 0.484 0.146c0.221 0 0.371-0.047 0.446-0.141s0.113-0.273 0.113-0.531v-0.508h0.493v0.334c0 0.305-0.038 0.545-0.113 0.71s-0.188 0.282-0.338 0.343-0.338 0.099-0.578 0.099zM20.671 23.739h1.161v-0.775c0-0.221-0.038-0.385-0.113-0.484s-0.226-0.15-0.46-0.15c-0.235 0-0.39 0.052-0.47 0.15s-0.117 0.263-0.117 0.484v0.775z"></path>
<path fill="#0e7a77" style="fill: var(--color2, #0e7a77)" d="M23.979 26.065c-0.287 0-0.508-0.038-0.667-0.108s-0.268-0.183-0.334-0.343c-0.066-0.155-0.094-0.362-0.094-0.625v-0.343h0.498v0.451c0 0.249 0.042 0.418 0.127 0.517 0.085 0.094 0.24 0.141 0.46 0.141 0.197 0 0.338-0.047 0.432-0.141s0.141-0.258 0.141-0.484v-0.221c0-0.122-0.019-0.226-0.056-0.315s-0.108-0.169-0.211-0.244c-0.103-0.075-0.249-0.146-0.432-0.221-0.174-0.070-0.329-0.141-0.46-0.221s-0.235-0.179-0.315-0.301c-0.075-0.122-0.113-0.277-0.113-0.47v-0.24c0-0.282 0.080-0.498 0.24-0.653s0.437-0.235 0.822-0.235c0.254 0 0.456 0.033 0.606 0.103s0.263 0.179 0.334 0.334c0.070 0.155 0.108 0.352 0.108 0.597v0.334h-0.484v-0.381c0-0.263-0.047-0.446-0.136-0.545s-0.235-0.146-0.428-0.146c-0.221 0-0.371 0.052-0.446 0.16s-0.113 0.24-0.113 0.395v0.216c0 0.15 0.033 0.268 0.099 0.367 0.066 0.094 0.16 0.174 0.282 0.24s0.268 0.132 0.437 0.197c0.155 0.066 0.291 0.132 0.409 0.202s0.211 0.169 0.282 0.291c0.070 0.122 0.103 0.287 0.103 0.498v0.183c0 0.211-0.033 0.395-0.099 0.545s-0.179 0.268-0.338 0.343c-0.16 0.080-0.376 0.122-0.653 0.122z"></path>
<path fill="#0e7a77" style="fill: var(--color2, #0e7a77)" d="M16.226 31.145c-0.103 0-0.188-0.019-0.263-0.056s-0.132-0.099-0.169-0.183c-0.042-0.085-0.061-0.202-0.061-0.352v-0.113c0.038 0 0.070 0 0.108 0s0.070 0 0.108 0v0.127c0 0.113 0.014 0.202 0.038 0.263s0.056 0.103 0.099 0.132c0.042 0.023 0.089 0.038 0.146 0.038 0.089 0 0.16-0.028 0.216-0.085s0.085-0.155 0.085-0.296c0-0.103-0.014-0.179-0.042-0.23s-0.075-0.089-0.136-0.122c-0.061-0.028-0.136-0.066-0.226-0.099-0.070-0.028-0.136-0.066-0.193-0.108s-0.103-0.099-0.132-0.164c-0.033-0.066-0.047-0.155-0.047-0.258 0-0.117 0.014-0.216 0.047-0.291 0.033-0.080 0.085-0.136 0.155-0.174s0.169-0.056 0.287-0.056c0.155 0 0.277 0.038 0.362 0.117s0.127 0.188 0.127 0.329v0.221c-0.033 0-0.070 0-0.103 0s-0.070 0-0.108 0v-0.169c0-0.108-0.023-0.188-0.070-0.244s-0.113-0.085-0.207-0.085c-0.099 0-0.169 0.028-0.216 0.085-0.042 0.056-0.066 0.146-0.066 0.263 0 0.089 0.019 0.155 0.052 0.207s0.080 0.089 0.132 0.117c0.056 0.028 0.113 0.052 0.174 0.075 0.103 0.038 0.183 0.080 0.249 0.122 0.061 0.042 0.108 0.094 0.141 0.16 0.028 0.066 0.042 0.155 0.042 0.273 0 0.136-0.023 0.244-0.066 0.324s-0.103 0.136-0.183 0.174c-0.089 0.042-0.179 0.061-0.277 0.061z"></path>
<path fill="#0e7a77" style="fill: var(--color2, #0e7a77)" d="M17.41 31.121c-0.052 0-0.094-0.005-0.136-0.019-0.042-0.009-0.075-0.028-0.103-0.056s-0.052-0.061-0.066-0.103c-0.014-0.042-0.023-0.094-0.023-0.155v-1.212h-0.15v-0.108l0.164-0.023 0.038-0.315h0.16v0.315h0.362v0.132h-0.362v1.179c0 0.061 0.009 0.117 0.033 0.16s0.070 0.066 0.15 0.066c0.033 0 0.066 0 0.103-0.005s0.061-0.005 0.080-0.005v0.136c-0.019 0-0.052 0.005-0.094 0.009-0.052 0.005-0.103 0.005-0.155 0.005z"></path>
<path fill="#0e7a77" style="fill: var(--color2, #0e7a77)" d="M18.284 31.145c-0.103 0-0.188-0.014-0.258-0.042s-0.117-0.080-0.15-0.15c-0.033-0.070-0.047-0.169-0.047-0.296v-0.78c0-0.164 0.038-0.277 0.108-0.348s0.188-0.103 0.352-0.103c0.164 0 0.282 0.033 0.352 0.103 0.070 0.066 0.108 0.183 0.108 0.352v0.78c0 0.127-0.014 0.226-0.047 0.296s-0.080 0.122-0.15 0.15c-0.070 0.023-0.16 0.038-0.268 0.038zM18.284 31.013c0.089 0 0.155-0.023 0.193-0.066 0.038-0.047 0.056-0.127 0.056-0.249v-0.836c0-0.113-0.019-0.188-0.056-0.24-0.038-0.047-0.103-0.070-0.197-0.070-0.089 0-0.15 0.023-0.193 0.070-0.038 0.047-0.061 0.127-0.061 0.24v0.836c0 0.117 0.019 0.197 0.061 0.244 0.047 0.047 0.108 0.070 0.197 0.070z"></path>
<path fill="#0e7a77" style="fill: var(--color2, #0e7a77)" d="M19.059 31.121v-1.673h0.174l0.023 0.179c0.023-0.061 0.066-0.108 0.122-0.136s0.113-0.042 0.169-0.052c0.061-0.014 0.122-0.014 0.183-0.005v0.164c-0.009 0-0.023-0.005-0.047-0.005s-0.047-0.005-0.070-0.005-0.052 0.005-0.070 0.014c-0.075 0.009-0.141 0.038-0.193 0.085s-0.080 0.108-0.080 0.188v1.245h-0.211z"></path>
<path fill="#0e7a77" style="fill: var(--color2, #0e7a77)" d="M20.347 31.149c-0.113 0-0.202-0.014-0.273-0.038-0.070-0.028-0.122-0.075-0.15-0.146-0.033-0.070-0.047-0.169-0.047-0.305v-0.836c0-0.16 0.038-0.268 0.108-0.324s0.188-0.089 0.352-0.089c0.16 0 0.277 0.028 0.348 0.089 0.070 0.056 0.108 0.169 0.108 0.324v0.432h-0.705v0.475c0 0.108 0.019 0.183 0.052 0.226s0.103 0.061 0.207 0.061c0.094 0 0.16-0.019 0.188-0.061 0.033-0.042 0.047-0.117 0.047-0.226v-0.216h0.211v0.141c0 0.132-0.014 0.23-0.047 0.301s-0.080 0.122-0.146 0.146-0.15 0.047-0.254 0.047zM20.083 30.153h0.493v-0.334c0-0.094-0.014-0.164-0.047-0.207s-0.099-0.066-0.197-0.066c-0.099 0-0.164 0.023-0.197 0.066s-0.052 0.113-0.052 0.207v0.334z"></path>
</symbol>
<symbol id="icon-instagram" viewBox="0 0 32 32">
<path fill="#ff1515" style="fill: var(--color1, #ff1515)" d="M16 0c-4.342 0-4.888 0.020-6.594 0.096-1.706 0.080-2.868 0.348-3.886 0.744-1.068 0.402-2.035 1.032-2.834 1.846-0.814 0.799-1.444 1.766-1.846 2.834-0.396 1.016-0.666 2.18-0.744 3.88-0.076 1.71-0.096 2.254-0.096 6.602 0 4.344 0.020 4.888 0.096 6.594 0.080 1.704 0.348 2.866 0.744 3.884 0.41 1.052 0.956 1.944 1.846 2.834 0.888 0.89 1.78 1.438 2.832 1.846 1.020 0.396 2.18 0.666 3.884 0.744 1.708 0.076 2.252 0.096 6.598 0.096s4.888-0.020 6.596-0.096c1.702-0.080 2.868-0.348 3.886-0.744 1.067-0.402 2.034-1.032 2.832-1.846 0.89-0.89 1.436-1.782 1.846-2.834 0.394-1.018 0.664-2.18 0.744-3.884 0.076-1.706 0.096-2.25 0.096-6.596s-0.020-4.89-0.096-6.598c-0.080-1.702-0.35-2.866-0.744-3.882-0.402-1.068-1.032-2.035-1.846-2.834-0.799-0.815-1.766-1.445-2.834-1.846-1.020-0.396-2.184-0.666-3.886-0.744-1.708-0.076-2.25-0.096-6.598-0.096h0.004zM14.566 2.884h1.436c4.272 0 4.778 0.014 6.464 0.092 1.56 0.070 2.408 0.332 2.972 0.55 0.746 0.29 1.28 0.638 1.84 1.198s0.906 1.092 1.196 1.84c0.22 0.562 0.48 1.41 0.55 2.97 0.078 1.686 0.094 2.192 0.094 6.462s-0.016 4.778-0.094 6.464c-0.070 1.56-0.332 2.406-0.55 2.97-0.257 0.695-0.666 1.323-1.198 1.838-0.56 0.56-1.092 0.906-1.84 1.196-0.56 0.22-1.408 0.48-2.97 0.552-1.686 0.076-2.192 0.094-6.464 0.094s-4.78-0.018-6.466-0.094c-1.56-0.072-2.406-0.332-2.97-0.552-0.695-0.256-1.324-0.665-1.84-1.196-0.532-0.516-0.943-1.145-1.2-1.84-0.218-0.562-0.48-1.41-0.55-2.97-0.076-1.686-0.092-2.192-0.092-6.466 0-4.272 0.016-4.776 0.092-6.462 0.072-1.56 0.332-2.408 0.552-2.972 0.29-0.746 0.638-1.28 1.198-1.84s1.092-0.906 1.84-1.196c0.564-0.22 1.41-0.48 2.97-0.552 1.476-0.068 2.048-0.088 5.030-0.090v0.004zM24.542 5.54c-0.252 0-0.502 0.050-0.735 0.146s-0.444 0.238-0.623 0.416c-0.178 0.178-0.32 0.39-0.416 0.623s-0.146 0.483-0.146 0.735c0 0.252 0.050 0.502 0.146 0.735s0.238 0.445 0.416 0.623c0.178 0.178 0.39 0.32 0.623 0.416s0.483 0.146 0.735 0.146c0.509 0 0.998-0.202 1.358-0.562s0.562-0.848 0.562-1.358-0.202-0.998-0.562-1.358c-0.36-0.36-0.848-0.562-1.358-0.562zM16.002 7.784c-1.090-0.017-2.172 0.183-3.184 0.588s-1.933 1.008-2.71 1.773c-0.777 0.765-1.394 1.676-1.815 2.682s-0.638 2.085-0.638 3.174c0 1.090 0.217 2.169 0.638 3.175s1.038 1.917 1.815 2.682c0.777 0.765 1.698 1.367 2.71 1.773s2.094 0.605 3.184 0.588c2.157-0.034 4.214-0.914 5.728-2.452s2.362-3.608 2.362-5.766c0-2.157-0.848-4.228-2.362-5.765s-3.571-2.418-5.728-2.451zM16.002 10.666c1.415 0 2.771 0.562 3.772 1.562s1.562 2.357 1.562 3.772c0 1.415-0.562 2.771-1.562 3.772s-2.357 1.562-3.772 1.562c-1.415 0-2.771-0.562-3.772-1.562s-1.562-2.357-1.562-3.772c0-1.415 0.562-2.771 1.562-3.772s2.357-1.562 3.772-1.562z"></path>
</symbol>
<symbol id="icon-facebook" viewBox="0 0 32 32">
<path fill="#ff1515" style="fill: var(--color1, #ff1515)" d="M29.333 16c0-7.36-5.973-13.333-13.333-13.333s-13.333 5.973-13.333 13.333c0 6.453 4.587 11.827 10.667 13.067v-9.067h-2.667v-4h2.667v-3.333c0-2.573 2.093-4.667 4.667-4.667h3.333v4h-2.667c-0.733 0-1.333 0.6-1.333 1.333v2.667h4v4h-4v9.267c6.733-0.667 12-6.347 12-13.267z"></path>
</symbol>
<symbol id="icon-twitter" viewBox="0 0 32 32">
<path fill="#ff1515" style="fill: var(--color1, #ff1515)" d="M29.549 7.541c-1.018 0.45-2.097 0.746-3.203 0.877 1.165-0.697 2.037-1.793 2.453-3.085-1.093 0.651-2.292 1.107-3.541 1.353-0.839-0.898-1.952-1.493-3.164-1.694s-2.457 0.005-3.541 0.585c-1.084 0.58-1.945 1.502-2.451 2.622s-0.627 2.376-0.345 3.572c-2.217-0.111-4.386-0.687-6.366-1.691s-3.727-2.413-5.127-4.136c-0.496 0.851-0.756 1.819-0.755 2.804 0 1.933 0.984 3.641 2.48 4.641-0.885-0.028-1.751-0.267-2.525-0.697v0.069c0 1.288 0.446 2.535 1.261 3.532s1.95 1.68 3.212 1.936c-0.822 0.223-1.684 0.256-2.52 0.096 0.356 1.108 1.049 2.078 1.983 2.772s2.062 1.080 3.226 1.101c-1.157 0.908-2.481 1.58-3.897 1.976s-2.897 0.509-4.357 0.333c2.549 1.639 5.516 2.509 8.547 2.507 10.257 0 15.867-8.497 15.867-15.867 0-0.24-0.007-0.483-0.017-0.72 1.092-0.789 2.034-1.767 2.783-2.887l-0.001-0.001z"></path>
</symbol>
<symbol id="icon-hamburger" viewBox="0 0 32 32">
<path fill="#fff" style="fill: var(--color1, #fff)" d="M0 7.5c0-0.398 0.158-0.779 0.439-1.061s0.663-0.439 1.061-0.439h29c0.398 0 0.779 0.158 1.061 0.439s0.439 0.663 0.439 1.061c0 0.398-0.158 0.779-0.439 1.061s-0.663 0.439-1.061 0.439h-29c-0.398 0-0.779-0.158-1.061-0.439s-0.439-0.663-0.439-1.061zM0 16c0-0.398 0.158-0.779 0.439-1.061s0.663-0.439 1.061-0.439h29c0.398 0 0.779 0.158 1.061 0.439s0.439 0.663 0.439 1.061c0 0.398-0.158 0.779-0.439 1.061s-0.663 0.439-1.061 0.439h-29c-0.398 0-0.779-0.158-1.061-0.439s-0.439-0.663-0.439-1.061zM1.5 23c-0.398 0-0.779 0.158-1.061 0.439s-0.439 0.663-0.439 1.061c0 0.398 0.158 0.779 0.439 1.061s0.663 0.439 1.061 0.439h29c0.398 0 0.779-0.158 1.061-0.439s0.439-0.663 0.439-1.061c0-0.398-0.158-0.779-0.439-1.061s-0.663-0.439-1.061-0.439h-29z"></path>
</symbol>
<symbol id="icon-shopping-bag" viewBox="0 0 32 32">
<path fill="#ff1515" style="fill: var(--color2, #ff1515)" d="M8 29.333c-0.733 0-1.361-0.261-1.884-0.784s-0.784-1.15-0.783-1.883v-16c0-0.733 0.261-1.361 0.784-1.884s1.15-0.784 1.883-0.783h2.667c0-1.467 0.522-2.722 1.567-3.767s2.3-1.567 3.767-1.567c1.467 0 2.722 0.522 3.767 1.567s1.567 2.3 1.567 3.767h2.667c0.733 0 1.361 0.261 1.884 0.784s0.784 1.15 0.783 1.883v16c0 0.733-0.261 1.361-0.784 1.884s-1.15 0.784-1.883 0.783h-16zM12 14.667c0.378 0 0.695-0.128 0.951-0.384s0.384-0.572 0.383-0.949v-2.667h-2.667v2.667c0 0.378 0.128 0.695 0.384 0.951s0.572 0.384 0.949 0.383zM13.333 8h5.333c0-0.733-0.261-1.361-0.784-1.884s-1.15-0.784-1.883-0.783c-0.733 0-1.361 0.261-1.884 0.784s-0.784 1.15-0.783 1.883zM20 14.667c0.378 0 0.695-0.128 0.951-0.384s0.384-0.572 0.383-0.949v-2.667h-2.667v2.667c0 0.378 0.128 0.695 0.384 0.951s0.572 0.384 0.949 0.383z"></path>
</symbol>
<symbol id="icon-close" viewBox="0 0 32 32">
<path d="M18.121 16l5.938-5.937c0.282-0.281 0.44-0.663 0.441-1.061s-0.157-0.78-0.439-1.062c-0.281-0.282-0.663-0.44-1.061-0.441s-0.78 0.157-1.062 0.439l-5.937 5.938-5.937-5.938c-0.282-0.282-0.664-0.44-1.063-0.44s-0.781 0.158-1.063 0.44c-0.282 0.282-0.44 0.664-0.44 1.063s0.158 0.781 0.44 1.063l5.938 5.937-5.938 5.937c-0.282 0.282-0.44 0.664-0.44 1.063s0.158 0.781 0.44 1.063c0.282 0.282 0.664 0.44 1.063 0.44s0.781-0.158 1.063-0.44l5.937-5.938 5.937 5.938c0.282 0.282 0.664 0.44 1.063 0.44s0.781-0.158 1.063-0.44c0.282-0.282 0.44-0.664 0.44-1.063s-0.158-0.781-0.44-1.063l-5.941-5.937z"></path>
</symbol>
<symbol id="icon-star" viewBox="0 0 32 32">
<path fill="#ddf007" style="fill: var(--color1, #ddf007)" d="M16 24.367l-5.533 3.333c-0.244 0.156-0.5 0.222-0.767 0.2s-0.5-0.111-0.7-0.267c-0.2-0.156-0.356-0.35-0.467-0.584s-0.133-0.495-0.067-0.783l1.467-6.3-4.9-4.233c-0.222-0.2-0.361-0.428-0.416-0.684s-0.039-0.506 0.049-0.749c0.089-0.244 0.222-0.444 0.4-0.6s0.422-0.256 0.733-0.3l6.467-0.567 2.5-5.933c0.111-0.267 0.284-0.467 0.517-0.6s0.472-0.2 0.716-0.2c0.244 0 0.483 0.067 0.716 0.2s0.405 0.333 0.517 0.6l2.5 5.933 6.467 0.567c0.311 0.044 0.556 0.144 0.733 0.3s0.311 0.356 0.4 0.6c0.089 0.244 0.106 0.495 0.051 0.751s-0.194 0.484-0.417 0.683l-4.9 4.233 1.467 6.3c0.067 0.289 0.044 0.55-0.067 0.784s-0.267 0.428-0.467 0.583c-0.2 0.156-0.433 0.244-0.7 0.267s-0.522-0.044-0.767-0.2l-5.533-3.333z"></path>
</symbol>
<symbol id="icon-percent" viewBox="0 0 32 32">
<path fill="#fff" style="fill: var(--color1, #fff)" d="M10 5.333c-2.573 0-4.667 2.093-4.667 4.667s2.093 4.667 4.667 4.667c2.573 0 4.667-2.093 4.667-4.667s-2.093-4.667-4.667-4.667zM10 12c-1.107 0-2-0.893-2-2s0.893-2 2-2c1.107 0 2 0.893 2 2s-0.893 2-2 2zM22 17.333c-2.573 0-4.667 2.093-4.667 4.667s2.093 4.667 4.667 4.667c2.573 0 4.667-2.093 4.667-4.667s-2.093-4.667-4.667-4.667zM22 24c-1.107 0-2-0.893-2-2s0.893-2 2-2c1.107 0 2 0.893 2 2s-0.893 2-2 2zM25.72 6.28c0.52 0.52 0.52 1.36 0 1.88l-17.56 17.56c-0.123 0.123-0.27 0.221-0.431 0.288s-0.334 0.101-0.509 0.101c-0.175 0-0.347-0.034-0.509-0.101s-0.308-0.165-0.431-0.288c-0.123-0.123-0.221-0.27-0.288-0.431s-0.101-0.334-0.101-0.509 0.034-0.347 0.101-0.509c0.067-0.161 0.165-0.308 0.288-0.431l17.56-17.56c0.123-0.124 0.27-0.222 0.431-0.289s0.334-0.101 0.509-0.101 0.348 0.034 0.509 0.101c0.161 0.067 0.308 0.165 0.431 0.289z"></path>
</symbol>
</defs>
</svg>